# xmcd CD database file
#
# Track frame offsets:
#	150
#	3618
#	22540
#	40062
#	62076
#	84070
#	111293
#	125112
#	141967
#	159353
#	174913
#
# Disc length: 2682 seconds
#
# Revision: 0
# Processed by: cddbd v1.4PL0 Copyright (c) Steve Scherf et al.
# Submitted via: CDex 1.50beta10
#
DISCID=7e0a780b
DTITLE=Albatross(USA) - Blues Landing
DYEAR=2000
DGENRE=Blues
TTITLE0=Intro
TTITLE1=High Tide
TTITLE2=Time Of Our Lives
TTITLE3=Man Of The World
TTITLE4=Short Skirt
TTITLE5=Wharf Blues
TTITLE6=Sea Line Woman
TTITLE7=Heart In My Hand
TTITLE8=Chameleon
TTITLE9=Embarcadero Blues
TTITLE10=American Stockade
EXTD=YEAR: 2000
EXTT0=
EXTT1=
EXTT2=
EXTT3=
EXTT4=
EXTT5=
EXTT6=
EXTT7=
EXTT8=
EXTT9=
EXTT10=
PLAYORDER=
